<svg xmlns="http://www.w3.org/2000/svg" xmlns:xlink="http://www.w3.org/1999/xlink" viewBox="0 0 127.7 75"><defs><linearGradient id="a" x1="3.74" y1="580.79" x2="105.82" y2="635.49" gradientTransform="matrix(1 0 0 -1 0 632)" gradientUnits="userSpaceOnUse"><stop offset="0" stop-color="#e82368"/><stop offset="1" stop-color="#e22b91"/></linearGradient><linearGradient id="b" x1="11.98" y1="565.43" x2="114.06" y2="620.12" xlink:href="#a"/><linearGradient id="c" x1="15.27" y1="559.27" x2="117.36" y2="613.97" xlink:href="#a"/><linearGradient id="d" x1="19.52" y1="551.34" x2="121.6" y2="606.04" xlink:href="#a"/><linearGradient id="e" x1="8.76" y1="571.43" x2="110.84" y2="626.12" xlink:href="#a"/><linearGradient id="f" x1="4.51" y1="579.36" x2="106.59" y2="634.05" xlink:href="#a"/><linearGradient id="g" x1="22.33" y1="546.11" x2="124.41" y2="600.8" xlink:href="#a"/></defs><title>wdg-logo</title><path d="M96.9 32.7v.3h-.3v.9h-.3V33H96v-.2h.9zm1 0h.2v1.1h-.3v-.6l-.2.3h-.2l-.2-.3v.6h-.3v-1.1h.2l.3.6z" fill="#e32a8b"/><path d="M32 35l-5.3 11.5s-2.9-6.4-3-6.6a3.75 3.75 0 0 0-6.5 0c-.1.2-2.9 6.2-2.9 6.2L9.4 35a3.83 3.83 0 0 0-3.5-2.3H0l11.4 25.6h3.1a.89.89 0 0 0 .8-.5l5-11 5 11a.89.89 0 0 0 .8.5h2.7l11.5-25.6h-5C33.1 32.7 32 35 32 35z" fill="url(#a)"/><path d="M59.2 22.3v13.3c-1.4-2.2-4.1-3.6-7.9-3.6-6.7 0-12.1 5.7-12.1 13.5S44.6 59 51.3 59c3.9 0 6.5-1.4 7.9-3.6v2.1a1 1 0 0 0 .9.9h6.6V18.6H63a3.78 3.78 0 0 0-3.8 3.7zm-5.9 30.1c-3.8 0-6.3-2.7-6.3-6.9s2.5-6.9 6.3-6.9 6.1 2.7 6.1 6.9-2.3 6.9-6.1 6.9z" fill="url(#b)"/><path d="M107.2 18.7l20.5 9.1v-8.3L104.9 9.4v5.9a3.78 3.78 0 0 0 2.3 3.4z" fill="url(#c)"/><path d="M107.2 28.7a3.83 3.83 0 0 0-2.3 3.5V38l21.1-9.4-9.4-4.1z" fill="url(#d)"/><path d="M94.7 19.3l-20.5-9.1v8.3L97 28.6v-5.9a3.78 3.78 0 0 0-2.3-3.4z" fill="url(#e)"/><path d="M85.3 13.5l9.4-4.2A3.83 3.83 0 0 0 97 5.8V0L75.9 9.4z" fill="url(#f)"/><path d="M82.5 55.5c-6-.3-6.7-1-6.7-2.4a2.34 2.34 0 0 1 .7-1.7 12.41 12.41 0 0 0 5 1c6.3 0 10.9-4.3 10.9-10.2a9.29 9.29 0 0 0-1-3.8h.9a2.82 2.82 0 0 0 2.8-2.9v-2.8h-9.4a11.76 11.76 0 0 0-4.3-.7c-6.3 0-10.9 4.3-10.9 10.2a9.78 9.78 0 0 0 2.5 6.5 5.51 5.51 0 0 0-3.5 5.2 5.66 5.66 0 0 0 3.3 5.3c-3.1 1-5 3.1-5 6.7 0 5.3 4.9 9.1 14.1 9.1 9.4 0 13.6-4.2 13.6-10 0-5.5-3.4-9-13-9.5zM81.4 38a4.07 4.07 0 0 1 4.4 4.3 4.07 4.07 0 0 1-4.4 4.3 4.15 4.15 0 0 1-4.4-4.4 4 4 0 0 1 4.4-4.2zm.5 30.7c-4.6 0-7.1-1.3-7.1-3.4 0-2.4 2.2-3.1 5.9-3.1 5.9 0 7.4 1.1 7.4 3.1s-1.8 3.4-6.2 3.4z" fill="url(#g)"/></svg>