<svg xmlns="http://www.w3.org/2000/svg" viewBox="-175 267 260 260"><path class="letters" fill="#fff" d="M-155.6 335.1H65.7v119.5h-221.3V335.1z"/><path class="circle" fill="#111" d="M-68.5 396.8c-5.8 0-9.6 4.1-9.6 10.5s3.8 10.5 9.6 10.5 9.4-4.1 9.4-10.5-3.6-10.5-9.4-10.5zm47.8 12c4.1 0 6.7-2.6 6.7-6.5s-2.6-6.5-6.7-6.5-6.7 2.6-6.7 6.5 2.6 6.5 6.7 6.5zm-1.1 23.9c-5.7 0-9 1.1-9 4.8 0 3.2 3.8 5.1 10.8 5.1 6.7 0 9.5-2.1 9.5-5.1s-2.3-4.8-11.3-4.8zM-45 267c-71.8 0-130 58.2-130 130s58.2 130 130 130S85 468.8 85 397 26.8 267-45 267zm-64.2 159.8h-4.2c-.9 0-1.2-.8-1.2-.8l-7.7-16.7-7.6 16.8s-.3.8-1.2.8h-4.8l-17.4-39h8.9c3.9 0 5.3 3.5 5.3 3.5l7.6 17s4.2-9.2 4.4-9.5c2.3-3.9 7.7-3.8 9.9 0 .2.4 4.6 10.1 4.6 10.1l8-17.6s1.7-3.5 5.2-3.5h7.7l-17.5 38.9zm61.3-54.8v54.9h-10c-.7 0-1.4-.6-1.4-1.3v-3.1c-2.2 3.4-6.2 5.5-12.1 5.5-10.2 0-18.4-8.7-18.4-20.5 0-11.9 8.2-20.6 18.4-20.6 5.9 0 9.9 2.1 12.1 5.5V372c0-3.1 2.6-5.7 5.8-5.7h5.7l-.1 5.7zm77-19.8l34.8 15.5v12.6l-31.3-13.9s-3.5-1.4-3.5-5.3v-8.9zM-20 452.3c-13.9 0-21.5-5.7-21.5-13.8 0-5.5 3-8.6 7.6-10.2-3.3-1.5-5-4.7-5-8.1 0-3.7 1.9-6.4 5.4-8-2.4-2.6-3.9-6.1-3.9-9.9 0-9 7.1-15.5 16.7-15.5 2.4 0 4.6.3 6.4 1H0v4.3c0 2.2-1.8 4.4-4.3 4.4h-1.3c.9 1.7 1.6 3.6 1.6 5.8 0 9-7.1 15.5-16.7 15.5-2.9 0-5.5-.6-7.6-1.5-.6.6-1 1.4-1 2.5 0 2.2 1.1 3.2 10.3 3.6C-4.3 423.2.9 428.6.9 437c-.1 9-6.5 15.3-20.9 15.3zm37.4-70.7l-34.8-15.5v-12.6l31.3 13.9s3.5 1.4 3.5 5.3v8.9zm0-34.7c0 3.9-3.5 5.3-3.5 5.3l-14.3 6.4-14.3-6.3L17.5 338l-.1 8.9zm11.7 49V387c0-3.9 3.5-5.3 3.5-5.3l14.4-6.4 14.3 6.3-32.2 14.3z"/></svg>