<?xml version="1.0" encoding="utf-8"?>
<!-- Generator: Adobe Illustrator 15.0.0, SVG Export Plug-In . SVG Version: 6.00 Build 0)  -->
<!DOCTYPE svg PUBLIC "-//W3C//DTD SVG 1.1//EN" "http://www.w3.org/Graphics/SVG/1.1/DTD/svg11.dtd">
<svg version="1.1" id="Layer_1" xmlns="http://www.w3.org/2000/svg" xmlns:xlink="http://www.w3.org/1999/xlink" x="0px" y="0px"
	 width="75px" height="75px" viewBox="0.5 792.5 75 75" enable-background="new 0.5 792.5 75 75" xml:space="preserve">
<path fill="#111111" d="M31.221,829.942c-1.673,0-2.769,1.183-2.769,3.028c0,1.847,1.096,3.029,2.769,3.029s2.711-1.183,2.711-3.029
	C33.933,831.125,32.895,829.942,31.221,829.942z M45.01,833.404c1.183,0,1.933-0.75,1.933-1.875s-0.75-1.875-1.933-1.875
	s-1.933,0.75-1.933,1.875S43.827,833.404,45.01,833.404z M44.692,840.298c-1.645,0-2.596,0.317-2.596,1.385
	c0,0.923,1.096,1.472,3.115,1.472c1.933,0,2.74-0.606,2.74-1.472S47.289,840.298,44.692,840.298z M38,792.5
	c-20.712,0-37.5,16.789-37.5,37.5s16.788,37.5,37.5,37.5c20.711,0,37.5-16.789,37.5-37.5S58.711,792.5,38,792.5z M19.48,838.596
	H18.27c-0.26,0-0.347-0.23-0.347-0.23l-2.221-4.817l-2.192,4.847c0,0-0.087,0.23-0.346,0.23h-1.385l-5.019-11.25h2.567
	c1.125,0,1.528,1.01,1.528,1.01l2.192,4.904c0,0,1.212-2.654,1.27-2.741c0.663-1.125,2.221-1.096,2.855,0
	c0.058,0.116,1.327,2.913,1.327,2.913l2.308-5.076c0,0,0.49-1.01,1.5-1.01h2.221L19.48,838.596L19.48,838.596z M37.164,822.789
	v15.836h-2.885c-0.202,0-0.404-0.173-0.404-0.375v-0.895c-0.635,0.981-1.789,1.587-3.49,1.587c-2.942,0-5.308-2.51-5.308-5.913
	c0-3.434,2.365-5.942,5.308-5.942c1.702,0,2.855,0.605,3.49,1.586v-5.884c0-0.895,0.75-1.645,1.673-1.645h1.645L37.164,822.789z
	 M59.375,817.077l10.039,4.471v3.635l-9.029-4.01c0,0-1.01-0.403-1.01-1.528V817.077L59.375,817.077z M45.211,845.952
	c-4.009,0-6.202-1.645-6.202-3.981c0-1.586,0.865-2.48,2.192-2.941c-0.952-0.434-1.442-1.356-1.442-2.337
	c0-1.067,0.548-1.847,1.558-2.308c-0.692-0.75-1.125-1.76-1.125-2.855c0-2.597,2.048-4.472,4.817-4.472
	c0.692,0,1.327,0.087,1.846,0.288h4.125v1.24c0,0.635-0.52,1.27-1.241,1.27h-0.375c0.26,0.49,0.462,1.039,0.462,1.674
	c0,2.596-2.048,4.471-4.817,4.471c-0.837,0-1.587-0.173-2.192-0.433c-0.173,0.173-0.289,0.403-0.289,0.721
	c0,0.635,0.317,0.923,2.971,1.039c4.24,0.23,5.74,1.788,5.74,4.211C51.211,844.135,49.365,845.952,45.211,845.952z M56,825.558
	l-10.039-4.472v-3.634l9.029,4.009c0,0,1.01,0.404,1.01,1.529V825.558L56,825.558z M56,815.548c0,1.125-1.01,1.529-1.01,1.529
	l-4.125,1.846l-4.125-1.817l9.289-4.125L56,815.548L56,815.548z M59.375,829.683v-2.567c0-1.125,1.01-1.528,1.01-1.528l4.154-1.847
	l4.125,1.817L59.375,829.683L59.375,829.683z"/>
</svg>
