<?xml version="1.0" encoding="utf-8"?>
<!-- Generator: Adobe Illustrator 21.1.0, SVG Export Plug-In . SVG Version: 6.00 Build 0)  -->
<svg version="1.1" id="wdg-logo" xmlns="http://www.w3.org/2000/svg" xmlns:xlink="http://www.w3.org/1999/xlink" x="0px" y="0px"
	 viewBox="0 0 127.8 75" style="enable-background:new 0 0 127.8 75;" xml:space="preserve">
<style type="text/css">
	.st0{fill:#E32A8B;}
	.st1{fill:url(#SVGID_1_);}
	.st2{fill:url(#SVGID_2_);}
	.st3{fill:url(#SVGID_3_);}
	.st4{fill:url(#SVGID_4_);}
	.st5{fill:url(#SVGID_5_);}
	.st6{fill:url(#SVGID_6_);}
	.st7{fill:url(#SVGID_7_);}
</style>
<g>
	<title>wdg</title>
	<path class="st0" d="M96.9,32.7V33h-0.3v0.9h-0.3V33h-0.3v-0.2H96.9z"/>
	<path class="st0" d="M97.9,32.7h0.2v1.1h-0.3v-0.6l-0.2,0.3h-0.2l-0.2-0.3v0.6h-0.3v-1.1h0.2l0.3,0.6L97.9,32.7z"/>
	
		<linearGradient id="SVGID_1_" gradientUnits="userSpaceOnUse" x1="3.7512" y1="-505.7772" x2="105.832" y2="-560.4727" gradientTransform="matrix(1 0 0 1 0 557)">
		<stop  offset="0" style="stop-color:#E82368"/>
		<stop  offset="1" style="stop-color:#E22B91"/>
	</linearGradient>
	<path class="st1" d="M32,35l-5.3,11.5c0,0-2.9-6.4-3-6.6c-1.4-2.5-5-2.5-6.5,0c-0.1,0.2-2.9,6.2-2.9,6.2L9.4,35
		c0,0-0.9-2.3-3.5-2.3H0l11.4,25.6c0,0,2.5,0,3.1,0c0.3,0,0.7-0.2,0.8-0.5l5-11l5,11c0.1,0.3,0.5,0.5,0.8,0.5h2.7l11.5-25.6h-5
		C33.1,32.7,32,35,32,35z"/>
	
		<linearGradient id="SVGID_2_" gradientUnits="userSpaceOnUse" x1="11.9569" y1="-490.4618" x2="114.0377" y2="-545.1573" gradientTransform="matrix(1 0 0 1 0 557)">
		<stop  offset="0" style="stop-color:#E82368"/>
		<stop  offset="1" style="stop-color:#E22B91"/>
	</linearGradient>
	<path class="st2" d="M59.2,22.3v13.3c-1.4-2.2-4.1-3.6-7.9-3.6c-6.7,0-12.1,5.7-12.1,13.5S44.6,59,51.3,59c3.9,0,6.5-1.4,7.9-3.6
		v2.1c0,0.5,0.5,0.9,0.9,0.9h6.6V18.6H63C60.9,18.6,59.2,20.3,59.2,22.3z M53.3,52.4c-3.8,0-6.3-2.7-6.3-6.9s2.5-6.9,6.3-6.9
		s6.1,2.7,6.1,6.9S57.1,52.4,53.3,52.4z"/>
	
		<linearGradient id="SVGID_3_" gradientUnits="userSpaceOnUse" x1="15.2908" y1="-484.2399" x2="117.3715" y2="-538.9355" gradientTransform="matrix(1 0 0 1 0 557)">
		<stop  offset="0" style="stop-color:#E82368"/>
		<stop  offset="1" style="stop-color:#E22B91"/>
	</linearGradient>
	<path class="st3" d="M107.2,18.7l20.5,9.1v-8.3L104.9,9.4v5.9C104.9,17.8,107.2,18.7,107.2,18.7z"/>
	
		<linearGradient id="SVGID_4_" gradientUnits="userSpaceOnUse" x1="19.5248" y1="-476.3385" x2="121.6056" y2="-531.0341" gradientTransform="matrix(1 0 0 1 0 557)">
		<stop  offset="0" style="stop-color:#E82368"/>
		<stop  offset="1" style="stop-color:#E22B91"/>
	</linearGradient>
	<path class="st4" d="M107.2,28.7c0,0-2.3,0.9-2.3,3.5V38l21.1-9.4l-9.4-4.1L107.2,28.7z"/>
	
		<linearGradient id="SVGID_5_" gradientUnits="userSpaceOnUse" x1="8.761" y1="-496.4258" x2="110.8431" y2="-551.1213" gradientTransform="matrix(1 0 0 1 0 557)">
		<stop  offset="0" style="stop-color:#E82368"/>
		<stop  offset="1" style="stop-color:#E22B91"/>
	</linearGradient>
	<path class="st5" d="M94.7,19.3l-20.5-9.1v8.3L97,28.6v-5.9C97,20.2,94.7,19.3,94.7,19.3z"/>
	
		<linearGradient id="SVGID_6_" gradientUnits="userSpaceOnUse" x1="4.5305" y1="-504.3219" x2="106.6126" y2="-559.0175" gradientTransform="matrix(1 0 0 1 0 557)">
		<stop  offset="0" style="stop-color:#E82368"/>
		<stop  offset="1" style="stop-color:#E22B91"/>
	</linearGradient>
	<path class="st6" d="M85.3,13.5l9.4-4.2c0,0,2.3-0.9,2.3-3.5V0L75.9,9.4L85.3,13.5z"/>
	
		<linearGradient id="SVGID_7_" gradientUnits="userSpaceOnUse" x1="22.3391" y1="-471.0855" x2="124.4198" y2="-525.7811" gradientTransform="matrix(1 0 0 1 0 557)">
		<stop  offset="0" style="stop-color:#E82368"/>
		<stop  offset="1" style="stop-color:#E22B91"/>
	</linearGradient>
	<path class="st7" d="M82.5,55.5c-6-0.3-6.7-1-6.7-2.4c0-0.6,0.2-1.2,0.7-1.7c1.6,0.7,3.3,1,5,1c6.3,0,10.9-4.3,10.9-10.2
		c0-1.4-0.5-2.7-1-3.8h0.9c1.7,0,2.8-1.4,2.8-2.9v-2.8h-9.4C84.4,32.2,83,32,81.4,32c-6.3,0-10.9,4.3-10.9,10.2
		c0,2.4,0.9,4.7,2.5,6.5c-2.2,1-3.5,2.8-3.5,5.2c0,2.2,1.1,4.3,3.3,5.3c-3.1,1-5,3.1-5,6.7c0,5.3,4.9,9.1,14.1,9.1
		c9.4,0,13.6-4.2,13.6-10C95.5,59.5,92.1,56,82.5,55.5z M81.4,38c2.7,0,4.4,1.7,4.4,4.3c0,2.6-1.7,4.3-4.4,4.3S77,44.8,77,42.2
		C77,39.7,78.7,38,81.4,38z M81.9,68.7c-4.6,0-7.1-1.3-7.1-3.4c0-2.4,2.2-3.1,5.9-3.1c5.9,0,7.4,1.1,7.4,3.1
		C88.1,67.3,86.3,68.7,81.9,68.7z"/>
</g>
</svg>
